<?xml version="1.0" encoding="utf-8"?>
<!-- Generator: Adobe Illustrator 16.0.2, SVG Export Plug-In . SVG Version: 6.00 Build 0)  -->
<!DOCTYPE svg PUBLIC "-//W3C//DTD SVG 1.1//EN" "http://www.w3.org/Graphics/SVG/1.1/DTD/svg11.dtd">
<svg version="1.1" xmlns="http://www.w3.org/2000/svg" xmlns:xlink="http://www.w3.org/1999/xlink" x="0px" y="0px" width="512px"
	 height="512px" viewBox="0 0 512 512" enable-background="new 0 0 512 512" xml:space="preserve">
<g id="Layer_7" display="none">
	<rect display="inline" fill="#263238" width="512" height="512"/>
</g>
<g id="Layer_1" display="none">
	
		<ellipse transform="matrix(0.974 0.2265 -0.2265 0.974 59.2544 -22.3108)" display="inline" fill="#FFF59D" cx="126.836" cy="247.02" rx="117.836" ry="60.067"/>
	
		<ellipse transform="matrix(0.7677 0.6408 -0.6408 0.7677 180.1825 -65.0594)" display="inline" fill="#FFF176" cx="179.836" cy="216.02" rx="117.836" ry="60.068"/>
	<g display="inline">
		<path fill="none" stroke="#000000" stroke-width="4" stroke-miterlimit="10" d="M323.525,181.895c0,0-14.375-66.279-41.322-64.248
			"/>
		<circle fill="#FFEB3B" cx="272.807" cy="115.602" r="10.001"/>
	</g>
	<g display="inline">
		<path fill="none" stroke="#000000" stroke-width="4" stroke-miterlimit="10" d="M455.591,164.578c0,0,19.876-64.842-4.623-76.249"
			/>
		<circle fill="#FFEB3B" cx="443.772" cy="81.95" r="10"/>
	</g>
	<polyline display="inline" points="87,334.083 54.333,375.373 93.667,387.666 	"/>
	<g display="inline">
		<g>
			<path fill="#FFEB3B" d="M287.951,237.854c-19.679-6.304-42.186-9.023-65.864-7.404c-30.454,70.98,19.969,166.778,37.001,195.793
				c17.842-5.645,34.02-13.53,47.916-23.018C283.165,377.388,243.139,319.063,287.951,237.854z"/>
			<path fill="#FFEB3B" d="M126.112,262.813c-36.513,25.121-57.099,61.325-50.344,96.855c5.022,26.418,24.245,47.636,51.523,60.881
				C104.986,394.571,72.36,338.827,126.112,262.813z"/>
			<path fill="#FFEB3B" d="M200.625,233.077c-0.901,0.159-1.804,0.317-2.707,0.489c-14.597,2.775-28.38,7.014-41.072,12.43
				c-59.271,67.627,11.76,173.871,22.257,188.762c14.976,1.541,30.837,1.267,47.075-1.043c-0.312-0.291-0.616-0.592-0.899-0.915
				C215.848,422.034,137.32,345.335,200.625,233.077z"/>
			<path fill="#FFEB3B" d="M357.823,306.045c-4.606-24.229-21.159-44.083-44.915-57.426c-7.929,44.122,9.346,91.439,26.248,124.754
				C354.954,352.838,362.244,329.296,357.823,306.045z"/>
			<path d="M156.847,245.997c-11.151,4.759-21.454,10.432-30.734,16.817c-53.752,76.014-21.126,131.758,1.179,157.736
				c15.139,7.35,32.757,12.246,51.812,14.209C168.607,419.867,97.576,313.624,156.847,245.997z"/>
			<path d="M222.087,230.45c-7.064,0.483-14.233,1.352-21.462,2.627c-63.305,112.258,15.223,188.957,24.655,199.724
				c0.283,0.323,0.587,0.624,0.899,0.915c3.152-0.448,6.317-0.965,9.494-1.569c8.071-1.534,15.888-3.523,23.416-5.903
				C242.056,397.228,191.633,301.43,222.087,230.45z"/>
			<path d="M312.908,248.619c-7.628-4.284-15.999-7.896-24.957-10.765c-44.813,81.209-4.786,139.534,19.053,165.372
				c12.823-8.757,23.706-18.874,32.152-29.853C322.254,340.058,304.979,292.74,312.908,248.619z"/>
		</g>
		<path fill="#FFFFFF" d="M362.583,306.202c-4.644-24.425-21.295-45.792-46.886-60.167c-7.853-4.41-16.498-8.14-25.695-11.086
			c-16.681-5.344-34.762-8.053-53.742-8.053c-4.496,0-9.078,0.157-13.615,0.468c-7.262,0.497-14.625,1.398-21.885,2.68l-0.207,0.038
			c-0.85,0.15-1.701,0.303-2.551,0.464c-14.577,2.771-28.673,7.042-41.895,12.685c-11.239,4.796-21.814,10.592-31.432,17.209
			c-39.42,27.121-58.862,64.857-52.007,100.915c5.086,26.752,24.159,49.421,53.706,63.768c15.813,7.677,33.695,13.201,53.149,15.205
			c6.357,0.654,12.895,1.673,19.431,1.673c0.001,0,0.001,0,0.002,0c9.434,0,19.062-1.376,28.615-2.733
			c3.34-0.475,6.596-1.425,9.677-2.013c8.047-1.529,16.079-3.691,23.876-6.156c17.934-5.674,34.407-13.657,48.965-23.596
			c13.19-9.009,24.316-19.377,33.066-30.751C360.38,354.362,367.098,329.945,362.583,306.202z M339.986,374.277
			c-8.446,10.979-19.329,21.096-32.152,29.853c-13.896,9.487-30.074,17.373-47.916,23.018c-7.527,2.38-15.344,4.369-23.416,5.903
			c-3.176,0.604-6.342,1.121-9.493,1.569c-16.238,2.31-32.1,2.584-47.075,1.043c-19.055-1.963-36.673-6.859-51.812-14.209
			c-27.279-13.245-46.501-34.463-51.523-60.881c-6.755-35.53,13.831-71.734,50.344-96.855c9.28-6.386,19.583-12.058,30.734-16.817
			c12.692-5.417,26.475-9.655,41.072-12.43c0.903-0.172,1.805-0.33,2.707-0.489c7.229-1.276,14.397-2.145,21.462-2.627
			c23.679-1.62,46.186,1.1,65.864,7.404c8.958,2.87,17.329,6.481,24.957,10.765c23.756,13.343,40.309,33.197,44.915,57.426
			C363.074,330.2,355.784,353.742,339.986,374.277z"/>
	</g>
	<path display="inline" fill="#FFEB3B" stroke="#FFFFFF" stroke-width="4" stroke-miterlimit="10" d="M506.334,225.163
		c0,54.215-49.965,98.163-111.607,98.163c-61.637,0-111.604-43.948-111.604-98.163c0-54.214,49.968-98.163,111.604-98.163
		C456.369,127,506.334,170.949,506.334,225.163z"/>
	<g display="inline">
		<g>
			<circle cx="350.902" cy="245.548" r="14.626"/>
			<circle fill="#FFFFFF" cx="347.289" cy="242.416" r="3.656"/>
		</g>
		<g>
			<circle cx="453.431" cy="218.875" r="14.626"/>
			<circle fill="#FFFFFF" cx="449.817" cy="215.743" r="3.656"/>
		</g>
		<path fill="none" stroke="#000000" stroke-width="6" stroke-miterlimit="10" d="M431.356,264.948
			c1.138,7.229-6.621,17.071-17.844,18.837l0.217-0.033c-11.222,1.766-21.428-3.936-22.565-11.163"/>
	</g>
</g>
<g id="Layer_2" display="none">
	<path display="inline" fill="none" stroke="#000000" stroke-miterlimit="10" d="M306.223,206.389
		c0,43.416-35.196,78.611-78.611,78.611C184.195,285,149,249.805,149,206.389c0-21.702,8.794-41.351,23.015-55.576
		c14.227-14.232,33.884-23.035,55.597-23.035C271.026,127.778,306.223,162.973,306.223,206.389z"/>
	<line display="inline" fill="none" stroke="#000000" stroke-miterlimit="10" x1="10.668" y1="-10.332" x2="388.334" y2="367.334"/>
	<line display="inline" fill="none" stroke="#000000" stroke-miterlimit="10" x1="227.5" y1="99" x2="227.5" y2="313"/>
	<line display="inline" fill="none" stroke="#000000" stroke-miterlimit="10" x1="442" y1="205.5" x2="20" y2="205.5"/>
	<line display="inline" fill="none" stroke="#000000" stroke-miterlimit="10" x1="420" y1="285.5" x2="20" y2="285.5"/>
</g>
<g id="Layer_3" display="none">
	<path display="inline" fill="none" stroke="#000000" stroke-miterlimit="10" d="M266.611,167.777
		c-21.713,0-41.37,8.804-55.597,23.035L76.608,325.22L266.611,325c43.415,0,78.611-35.195,78.611-78.611
		S310.026,167.777,266.611,167.777z"/>
	<circle display="inline" fill="none" stroke="#000000" stroke-miterlimit="10" cx="370.111" cy="187.222" r="76.111"/>
	<path display="inline" fill="none" stroke="#000000" stroke-miterlimit="10" d="M140.778,288.333c0,0-100.556-71.11-65.556-122.222
		s106.716,42.827,104.747,89.747c-13.636-97.524-0.302-152.525,25.809-161.969s68.468,8.132,41.734,104.066"/>
	<path display="inline" fill="none" stroke="#000000" stroke-miterlimit="10" d="M331.351,121.713c0,0-12.35-51.158-35.128-47.269"
		/>
	<circle display="inline" fill="none" stroke="#000000" stroke-miterlimit="10" cx="287.556" cy="74.556" r="8.889"/>
	<path display="inline" fill="none" stroke="#000000" stroke-miterlimit="10" d="M407.754,122.211c0,0,6.518-52.222-16.167-56.63"/>
	<circle display="inline" fill="none" stroke="#000000" stroke-miterlimit="10" cx="383.44" cy="62.624" r="8.889"/>
</g>
<g id="Layer_4" display="none">
	<path display="inline" fill="none" stroke="#000000" stroke-miterlimit="10" d="M278.611,234.777
		c-21.713,0-41.37,8.804-55.597,23.035L88.608,392.22L278.611,392c43.415,0,78.611-35.195,78.611-78.611
		S322.026,234.777,278.611,234.777z"/>
	<circle display="inline" fill="none" stroke="#000000" stroke-miterlimit="10" cx="382.111" cy="254.222" r="76.111"/>
	<path display="inline" fill="none" stroke="#000000" stroke-miterlimit="10" d="M152.778,355.333c0,0-100.556-71.11-65.556-122.222
		s106.716,42.827,104.747,89.746c-13.636-97.524-0.302-152.524,25.809-161.969s68.468,8.132,41.734,104.066"/>
	<g display="inline">
		<path fill="none" stroke="#000000" stroke-miterlimit="10" d="M343.351,188.713c0,0-12.35-51.158-35.128-47.269"/>
		<circle fill="none" stroke="#000000" stroke-miterlimit="10" cx="299.556" cy="141.556" r="8.889"/>
	</g>
	<g display="inline">
		<path fill="none" stroke="#000000" stroke-miterlimit="10" d="M420.754,189.211c0,0,6.518-52.222-16.167-56.63"/>
		<circle fill="none" stroke="#000000" stroke-miterlimit="10" cx="396.44" cy="129.624" r="8.889"/>
	</g>
</g>
<g id="Layer_5" display="none">
	<path display="inline" fill="none" stroke="#000000" stroke-width="12" stroke-miterlimit="10" d="M398.48,202.91
		c-13.328-8.399-31.954-12.894-47.997-12.894c-22.644,0-43.138,7.626-57.956,19.949c-4.985-12.553-13.158-26.962-24.28-26.426
		c0.231-1.049,0.214-2.163-0.113-3.267c-1.091-3.678-5.138-5.826-9.038-4.798c-3.9,1.029-6.179,4.843-5.089,8.521
		c1.092,3.678,5.137,5.826,9.037,4.798c2.613-0.689,4.491-2.63,5.124-4.941"/>
	<path display="inline" fill="none" stroke="#000000" stroke-width="12" stroke-miterlimit="10" d="M292.527,209.965
		c-16.281,12.895-23.893,31.001-23.893,47.926c0,1.828,0.09,3.638,0.261,5.43c-3.792-0.979-7.675-1.789-11.638-2.429
		c-7.399-13.788-19.829-28.373-36.144-41.211c-36.643-28.833-78.986-37.931-94.574-20.32c-6.3,7.118-7.264,17.51-3.76,29.27
		c-27.982,1.077-49.14,10.535-52.934,25.916c-4.717,19.122,18.936,41.195,54.993,53.553c-8.522,12.19-12.512,25.448-11.323,38.556
		l-12.67,15.1l19.257,5.675c37.335,56.645,131.107,43.036,164.159,20.532c33.053-22.503,42.866-36.146,45.843-64.495
		c0,0,15.3,2.592,20.378,2.458c45.19-1.184,81.851-30.468,81.851-67.955c0-22.617-13.343-42.687-33.854-55.021
		c2.846-13.783,4.859-34.226-6.497-39.529c0.747-0.808,1.309-1.799,1.596-2.912c0.956-3.711-1.459-7.455-5.395-8.357
		c-3.937-0.902-7.902,1.373-8.858,5.083s1.459,7.449,5.395,8.351c2.637,0.604,5.299-0.224,7.048-1.948"/>
	<ellipse display="inline" cx="260.049" cy="181.067" rx="6.314" ry="5.849"/>
	<ellipse display="inline" cx="386.691" cy="158.642" rx="5.292" ry="4.778"/>
</g>
<g id="Layer_6">
	<radialGradient id="SVGID_1_" cx="255.7969" cy="253.7139" r="216.4233" gradientUnits="userSpaceOnUse">
		<stop  offset="0" style="stop-color:#FFEA00"/>
		<stop  offset="0.1856" style="stop-color:#FFE600"/>
		<stop  offset="0.378" style="stop-color:#FDD900"/>
		<stop  offset="0.5734" style="stop-color:#FCC500"/>
		<stop  offset="0.7711" style="stop-color:#F9A800"/>
		<stop  offset="0.9686" style="stop-color:#F68300"/>
		<stop  offset="1" style="stop-color:#F57C00"/>
	</radialGradient>
	<path fill="url(#SVGID_1_)" d="M460.068,147.101c4.316-24.913,1.759-42.52-7.438-51.717c0.899-4.229,0.158-8.575-2.115-12.309
		c-2.469-4.056-6.42-6.891-11.125-7.982c-9.407-2.18-18.953,3.484-21.28,12.629c-1.129,4.435-0.434,9.041,1.958,12.969
		c2.469,4.055,6.42,6.889,11.124,7.98c3.593,0.833,7.466,0.438,10.949-0.989c3.894,5.093,4.979,16.083,3.056,30.805
		c-16.848-8.075-37.884-12.891-57.498-12.891c-27.053,0-52.721,7.803-73.401,22.147c-8.111-17.048-17.504-27.086-28.046-29.971
		c-2.408-7.327-9.607-12.236-17.484-11.965c-0.241-0.013-0.48-0.029-0.728-0.029c-9.018,0-16.354,7.103-16.354,15.833
		c0,0.308,0.014,0.624,0.035,0.946c-0.053,1.775,0.153,3.529,0.649,5.227c2.653,9.048,12.382,14.389,21.698,11.904
		c3.569-0.953,6.766-3.117,9.111-6.009c5.937,2.529,12.407,11.149,18.217,24.343c-18.413,16.75-29.167,39.524-29.948,63.645
		c-0.646-0.127-1.293-0.251-1.941-0.372c-10.774-18.922-27.685-38.051-48-54.229c-52.578-41.876-112.378-53.393-136.142-26.222
		c-8.256,9.441-11.25,22.135-8.839,37.091c-37.438,3.433-62.551,18.13-67.926,40.188c-3.688,15.131,2.827,31.781,18.343,46.883
		c12.203,11.877,29.807,22.64,50.241,30.809c-8.062,14.485-11.901,29.796-11.224,44.906l-22.451,27.08l34.318,10.236
		c18.134,26.303,46.77,43.949,83.022,51.112c12.773,2.524,25.811,3.653,38.667,3.653c42.591-0.001,83.147-12.396,105.102-27.524
		c42.262-29.122,57.683-49.014,63.009-83.757c6.737,1.013,15.769,2.204,20.284,2.084c65.097-1.726,116.09-45.213,116.09-99.004
		C504.001,194.396,487.681,165.789,460.068,147.101z M387.485,307.611c-4.331,0.098-17.868-1.89-25.397-3.18l-8.427-1.444
		l-0.882,8.504c-3.654,35.222-15.423,51.797-57.239,80.612c-26.249,18.089-82.645,31.021-131.589,21.35
		c-33.519-6.623-58.542-22.311-74.377-46.625l-1.603-2.462l-16.701-4.981l11.146-13.445l-0.294-3.282
		c-1.385-15.456,3.317-31.491,13.597-46.374l5.979-8.657l-9.939-3.447c-43.519-15.098-72.586-41.866-67.614-62.268
		c3.911-16.05,28.474-27.279,62.578-28.607l10.264-0.4l-2.901-9.854c-2.801-9.513-4.498-22.73,3.323-31.672
		c15.607-17.848,65.192-10.771,114.13,28.205c19.876,15.829,36.121,34.538,45.74,52.68l1.86,3.507l3.918,0.64
		c4.989,0.815,9.923,1.858,14.665,3.098l11.063,2.893l-1.074-11.385c-0.205-2.174-0.31-4.368-0.31-6.52
		c0-22.244,10.431-43.363,28.617-57.942l-5.004-6.242l5.151,6.121c19.029-16.017,44.434-24.837,71.533-24.837
		c20.675,0,42.989,5.984,58.502,15.639l0.847,0.515c25.644,15.609,40.953,40.6,40.953,66.853
		C488.001,269.655,443.85,306.117,387.485,307.611z"/>
</g>
</svg>
